<?xml version="1.0" encoding="utf-8"?>
<!-- Generator: Adobe Illustrator 17.0.0, SVG Export Plug-In . SVG Version: 6.00 Build 0)  -->
<!DOCTYPE svg PUBLIC "-//W3C//DTD SVG 1.1//EN" "http://www.w3.org/Graphics/SVG/1.1/DTD/svg11.dtd">
<svg version="1.1" id="Layer_1" xmlns="http://www.w3.org/2000/svg" xmlns:xlink="http://www.w3.org/1999/xlink" x="0px" y="0px"
	 width="32.673px" height="23.184px" viewBox="0 0 32.673 23.184" enable-background="new 0 0 32.673 23.184" xml:space="preserve">
<g>
	<g>
		<path fill="#FFFFFF" d="M14.416,10.457c1.137,1.131,1.706,2.512,1.706,4.143c0,1.62-0.568,2.992-1.706,4.118
			c-1.137,1.126-2.526,1.689-4.168,1.689s-3.031-0.563-4.168-1.689c-1.137-1.126-1.706-2.499-1.706-4.118
			c0-1.631,0.569-3.012,1.706-4.143C7.218,9.325,8.607,8.76,10.249,8.76S13.28,9.325,14.416,10.457z M12.803,17.229
			c0.693-0.699,1.04-1.575,1.04-2.629c0-1.054-0.347-1.936-1.04-2.645c-0.693-0.71-1.545-1.065-2.554-1.065
			c-1.009,0-1.861,0.355-2.554,1.065c-0.693,0.71-1.04,1.592-1.04,2.645c0,1.054,0.347,1.93,1.04,2.629
			c0.693,0.699,1.545,1.048,2.554,1.048C11.258,18.277,12.109,17.928,12.803,17.229z"/>
		<path fill="#FFFFFF" d="M27.494,10.457c1.137,1.131,1.706,2.512,1.706,4.143c0,1.62-0.568,2.992-1.706,4.118
			c-1.137,1.126-2.526,1.689-4.168,1.689s-3.031-0.563-4.168-1.689c-1.137-1.126-1.706-2.499-1.706-4.118
			c0-1.631,0.569-3.012,1.706-4.143c1.137-1.131,2.526-1.697,4.168-1.697S26.357,9.325,27.494,10.457z M25.88,17.229
			c0.693-0.699,1.04-1.575,1.04-2.629c0-1.054-0.347-1.936-1.04-2.645c-0.693-0.71-1.545-1.065-2.554-1.065
			c-1.009,0-1.861,0.355-2.554,1.065c-0.693,0.71-1.04,1.592-1.04,2.645c0,1.054,0.347,1.93,1.04,2.629
			c0.693,0.699,1.545,1.048,2.554,1.048C24.335,18.277,25.187,17.928,25.88,17.229z"/>
		<circle fill="#FFFFFF" cx="10.159" cy="14.62" r="2.117"/>
		<circle fill="#FFFFFF" cx="23.313" cy="14.62" r="2.117"/>
		<path fill="#FFFFFF" d="M5.112,12.108L4.028,6.913c0,0-0.228-0.559,0.71-0.374c0.943,0.186,11.361,0.523,12.034,6.652
			c0.486-1.495,0.822-5.344,11.809-6.615c0.411-0.075,0.875-0.163,0.822,0.262c-0.094,0.756-1.046,5.419-1.046,5.419l-2.878-1.682
			l-2.242-0.598l-3.55,1.233l-1.084,2.504l1.121,4.559l-2.354,3.102c0,0-0.436,0.611-1.046,0c-0.978-0.978-2.392-2.99-2.392-2.99
			l1.196-5.12l-0.561-2.28l-2.168-1.383L9.522,9.118l-2.467,1.009L5.112,12.108z"/>
	</g>
	<path fill="#FFFFFF" d="M30.069,5.461l-12.391,1.75c-0.488,0.089-0.837,0.094-1.479,0L2.755,5.461
		c-1.453-0.221-1.754-1.211,0-1.479l13.444-1.75c0.632-0.126,1.078-0.089,1.479,0l12.391,1.75
		C31.996,4.229,31.917,5.228,30.069,5.461z"/>
	<path fill="#FFFFFF" d="M2.673,14.995L2.673,14.995c-0.468,0-0.851-0.516-0.851-1.147c0,0,0.383-9.491,0.851-9.491h0
		c0.468,0,0.851,9.491,0.851,9.491C3.524,14.479,3.141,14.995,2.673,14.995z"/>
</g>
</svg>
