<svg xmlns="http://www.w3.org/2000/svg" width="32.673" height="23.184" viewBox="0 0 32.673 23.184"><g fill="#F15A24"><path d="M14.416 10.457c1.137 1.131 1.706 2.512 1.706 4.143 0 1.62-.568 2.992-1.706 4.118-1.137 1.126-2.526 1.689-4.168 1.689s-3.031-.563-4.168-1.689-1.706-2.499-1.706-4.118c0-1.631.569-3.012 1.706-4.143C7.218 9.325 8.607 8.76 10.249 8.76s3.031.565 4.167 1.697zm-1.613 6.772c.693-.699 1.04-1.575 1.04-2.629s-.347-1.936-1.04-2.645c-.693-.71-1.545-1.065-2.554-1.065s-1.861.355-2.554 1.065c-.693.71-1.04 1.592-1.04 2.645 0 1.054.347 1.93 1.04 2.629s1.545 1.048 2.554 1.048 1.86-.349 2.554-1.048zm14.691-6.772c1.137 1.131 1.706 2.512 1.706 4.143 0 1.62-.568 2.992-1.706 4.118-1.137 1.126-2.526 1.689-4.168 1.689s-3.031-.563-4.168-1.689-1.706-2.499-1.706-4.118c0-1.631.569-3.012 1.706-4.143s2.526-1.697 4.168-1.697 3.031.565 4.168 1.697zm-1.614 6.772c.693-.699 1.04-1.575 1.04-2.629s-.347-1.936-1.04-2.645c-.693-.71-1.545-1.065-2.554-1.065s-1.861.355-2.554 1.065c-.693.71-1.04 1.592-1.04 2.645 0 1.054.347 1.93 1.04 2.629s1.545 1.048 2.554 1.048 1.861-.349 2.554-1.048z"/><circle cx="10.159" cy="14.62" r="2.117"/><circle cx="23.313" cy="14.62" r="2.117"/><path d="M5.112 12.108L4.028 6.913s-.228-.559.71-.374c.943.186 11.361.523 12.034 6.652.486-1.495.822-5.344 11.809-6.615.411-.075.875-.163.822.262-.094.756-1.046 5.419-1.046 5.419l-2.878-1.682-2.242-.598-3.55 1.233-1.084 2.504 1.121 4.559-2.354 3.102s-.436.611-1.046 0c-.978-.978-2.392-2.99-2.392-2.99l1.196-5.12-.561-2.28-2.168-1.383-2.877-.484-2.467 1.009-1.943 1.981z"/><path d="M30.069 5.461l-12.391 1.75c-.488.089-.837.094-1.479 0L2.755 5.461c-1.453-.221-1.754-1.211 0-1.479l13.444-1.75c.632-.126 1.078-.089 1.479 0l12.391 1.75c1.927.247 1.848 1.246 0 1.479z"/><path d="M2.673 14.995c-.468 0-.851-.516-.851-1.147 0 0 .383-9.491.851-9.491.468 0 .851 9.491.851 9.491 0 .631-.383 1.147-.851 1.147z"/></g></svg>